<?xml version="1.0" encoding="UTF-8" standalone="no"?>
<!-- Created with Inkscape (http://www.inkscape.org/) -->

<svg
   xmlns:dc="http://purl.org/dc/elements/1.1/"
   xmlns:cc="http://creativecommons.org/ns#"
   xmlns:rdf="http://www.w3.org/1999/02/22-rdf-syntax-ns#"
   xmlns:svg="http://www.w3.org/2000/svg"
   xmlns="http://www.w3.org/2000/svg"
   xmlns:sodipodi="http://sodipodi.sourceforge.net/DTD/sodipodi-0.dtd"
   xmlns:inkscape="http://www.inkscape.org/namespaces/inkscape"
   width="512"
   height="512"
   viewBox="0 0 135.46666 135.46667"
   version="1.1"
   id="svg8"
   inkscape:version="0.92.5 (2060ec1f9f, 2020-04-08)"
   sodipodi:docname="icon.svg">
  <defs
     id="defs2" />
  <sodipodi:namedview
     id="base"
     pagecolor="#ffffff"
     bordercolor="#666666"
     borderopacity="1.0"
     inkscape:pageopacity="0.0"
     inkscape:pageshadow="2"
     inkscape:zoom="0.98994949"
     inkscape:cx="316.01088"
     inkscape:cy="382.01345"
     inkscape:document-units="px"
     inkscape:current-layer="layer1"
     showgrid="false"
     units="px"
     inkscape:window-width="1920"
     inkscape:window-height="1016"
     inkscape:window-x="0"
     inkscape:window-y="27"
     inkscape:window-maximized="1" />
  <metadata
     id="metadata5">
    <rdf:RDF>
      <cc:Work
         rdf:about="">
        <dc:format>image/svg+xml</dc:format>
        <dc:type
           rdf:resource="http://purl.org/dc/dcmitype/StillImage" />
        <dc:title></dc:title>
      </cc:Work>
    </rdf:RDF>
  </metadata>
  <g
     inkscape:label="Layer 1"
     inkscape:groupmode="layer"
     id="layer1"
     transform="translate(0,-161.53331)">
    <rect
       style="fill:#ffffff;fill-opacity:1;stroke-width:0.36054724"
       id="rect868"
       width="135.46666"
       height="135.46666"
       x="0"
       y="161.53331" />
    <path
       style="fill:#333747;fill-opacity:1;stroke-width:0.14757197"
       d="m 66.089111,274.68096 c -1.079953,-0.18293 -2.892711,-0.95386 -3.964093,-1.68591 -4.09011,-2.79464 -7.671725,-9.03592 -10.024934,-17.46935 -0.223941,-0.80258 -0.424555,-1.47882 -0.445807,-1.5028 -0.02133,-0.0239 -0.627651,0.11487 -1.34758,0.3084 -4.737172,1.27395 -9.505911,1.99386 -14.08026,2.12566 -5.093433,0.14687 -8.499972,-0.60342 -11.059651,-2.43555 -3.162819,-2.26384 -3.858744,-6.22702 -1.858402,-10.58333 0.227354,-0.49516 0.617838,-1.25945 0.867703,-1.69845 0.249866,-0.43898 0.45432,-0.86579 0.45432,-0.94847 0,-0.0827 -0.178199,-0.3815 -0.395894,-0.66408 -1.368698,-1.77627 -1.331546,-4.7438 0.08396,-6.69998 1.736689,-2.40018 5.497202,-3.49023 8.369318,-2.42593 l 0.608008,0.22527 1.108497,-0.94856 c 0.609675,-0.52172 1.128584,-0.95427 1.153151,-0.96121 0.02462,-0.007 -0.774475,-0.72614 -1.775626,-1.59818 -5.844736,-5.09099 -9.691612,-10.0109 -11.128039,-14.23208 -0.359733,-1.05713 -0.427676,-1.51967 -0.438904,-2.98793 -0.01551,-2.03136 0.292661,-3.05139 1.343663,-4.44722 3.358586,-4.46045 12.586865,-5.27195 25.125912,-2.20948 1.292802,0.31574 2.496678,0.60328 2.675284,0.63897 0.284128,0.0567 0.349979,-0.0365 0.526431,-0.74568 0.110904,-0.44583 0.549876,-1.8916 0.975458,-3.21281 1.727711,-5.36378 3.88944,-9.52431 6.47801,-12.46788 5.734501,-6.52091 13.159289,-5.62069 18.431678,2.23474 l 0.686733,1.02319 1.200484,0.003 c 2.265039,0.007 4.294757,0.88397 5.550543,2.39681 2.359975,2.84309 1.788674,6.59888 -1.3304,8.7462 l -0.534092,0.36769 0.181496,0.80152 c 0.09986,0.44084 0.210812,0.82748 0.246607,0.85922 0.03588,0.0318 0.829098,-0.13362 1.762886,-0.36732 8.660776,-2.16805 15.916939,-2.67956 20.702019,-1.4593 3.27888,0.83617 5.68612,2.70292 6.63764,5.14728 0.31759,0.81591 0.36883,1.20277 0.3564,2.69012 -0.0113,1.46538 -0.081,1.93285 -0.43968,2.9879 -0.48935,1.43939 -1.66785,3.70171 -2.71486,5.21151 -1.83547,2.64676 -5.36708,6.40705 -8.77756,9.34592 l -1.41115,1.216 1.41115,1.21601 c 3.41048,2.93887 6.94209,6.69916 8.77756,9.34594 4.92873,7.10726 4.13484,12.92079 -2.10458,15.41129 -1.55833,0.62203 -2.7927,0.89093 -5.49969,1.19803 -0.50652,0.0574 -0.74436,0.14961 -0.74436,0.28835 0,0.44873 -1.01665,1.94956 -1.777867,2.62458 -4.026035,3.57009 -10.853593,1.58779 -11.903238,-3.45592 l -0.19881,-0.95537 -1.874594,-0.46098 c -1.03103,-0.25356 -1.94884,-0.46411 -2.039608,-0.4679 -0.09075,-0.003 -0.329636,0.5986 -0.530775,1.33862 -2.289763,8.42333 -6.205477,15.19406 -10.277477,17.77102 -2.314157,1.4645 -4.616563,1.97738 -7.036881,1.56746 z m 3.234991,-3.58864 c 3.080507,-1.02715 6.297465,-5.36234 8.730252,-11.76492 0.936386,-2.4644 2.089577,-6.32592 1.928538,-6.45792 -0.06303,-0.0518 -0.60824,-0.2501 -1.211535,-0.44092 -2.094094,-0.66238 -5.909016,-2.04975 -8.475094,-3.08212 l -2.58,-1.038 -2.072571,0.84234 c -2.744955,1.11564 -5.277603,2.05001 -7.908212,2.91763 -1.185903,0.39114 -2.207781,0.75251 -2.270819,0.80309 -0.12914,0.10354 0.848682,3.52938 1.610379,5.64249 2.055333,5.70189 4.834743,10.06765 7.524067,11.81841 1.583505,1.03089 3.15456,1.28357 4.724995,0.75992 z m 27.043431,-13.60749 c 1.124572,-0.51147 1.756672,-1.41643 1.756672,-2.51503 0,-1.57083 -1.362841,-2.77947 -3.134078,-2.77947 -3.345106,0 -4.327021,3.92771 -1.331967,5.328 0.658199,0.30773 1.995439,0.29118 2.709373,-0.0334 z m -56.74084,-4.67119 c 4.158598,-0.47353 11.173142,-1.96572 11.173142,-2.37685 0,-0.10287 -0.170636,-1.11051 -0.379025,-2.23932 -0.414665,-2.24524 -0.974663,-6.20584 -1.153036,-8.15457 l -0.113241,-1.23813 -2.507245,-1.5893 c -1.379013,-0.87412 -3.695593,-2.44324 -5.147998,-3.48696 -1.452406,-1.04371 -2.739177,-1.95977 -2.859495,-2.03571 -0.166176,-0.105 -0.486217,0.099 -1.330924,0.84824 l -1.11214,0.98631 0.34036,0.59164 c 0.501089,0.87111 0.822215,2.40799 0.69575,3.32995 -0.307514,2.24171 -1.812718,4.09381 -4.112256,5.05995 -0.96836,0.40688 -1.169866,0.43979 -2.692096,0.43979 -0.904953,0 -1.842851,-0.0488 -2.084224,-0.10872 -0.424243,-0.10501 -0.456297,-0.075 -0.964327,0.90335 -1.184079,2.28014 -1.614238,4.36926 -1.181752,5.73921 0.529921,1.67855 2.418477,2.844 5.40558,3.33589 1.527872,0.25161 5.793488,0.24901 8.023005,-0.006 z m 65.288447,-0.22863 c 3.13098,-0.76947 4.49167,-2.12879 4.49167,-4.48713 0,-3.47531 -3.44406,-8.47167 -9.821817,-14.24865 -1.98845,-1.80114 -2.584385,-2.26634 -2.763589,-2.15733 -0.125648,0.0763 -1.417656,0.99027 -2.871129,2.03075 -1.453464,1.04048 -3.770938,2.6101 -5.149912,3.48805 l -2.507265,1.59628 -0.113241,1.23702 c -0.178587,1.94907 -0.738622,5.90966 -1.153015,8.15347 -0.208469,1.12881 -0.379047,2.13524 -0.379047,2.2365 0,0.11831 0.764217,0.37101 2.137742,0.70689 l 2.137723,0.52277 0.826444,-0.82282 c 1.306761,-1.30099 3.33345,-2.12145 5.240511,-2.12145 2.575554,0 4.972059,1.29528 6.185495,3.34316 l 0.58709,0.99082 1.01604,-0.0967 c 0.55882,-0.053 1.5202,-0.22041 2.13639,-0.37183 z m -47.522174,-4.06317 c 3.334115,-1.15165 5.781853,-2.07633 5.784392,-2.1851 8.75e-4,-0.0474 -1.073339,-0.60498 -2.387704,-1.23897 -1.314345,-0.63398 -3.517974,-1.76067 -4.896967,-2.50376 -1.378993,-0.74311 -2.532765,-1.33032 -2.563965,-1.30491 -0.0859,0.07 0.259426,2.63338 0.701044,5.20341 0.447553,2.60448 0.520401,2.91842 0.677057,2.91842 0.06166,0 1.270445,-0.4001 2.686143,-0.88909 z m 23.545354,0.5764 c 0.305594,-1.11842 1.30207,-7.71014 1.180512,-7.80914 -0.03121,-0.0254 -1.184971,0.5618 -2.563965,1.30491 -1.378991,0.74309 -3.582623,1.86978 -4.896968,2.50376 -1.314344,0.63399 -2.388577,1.1915 -2.387201,1.23897 0.0038,0.14737 7.921632,3.03326 8.403272,3.06309 0.09831,0.007 0.217348,-0.12965 0.26435,-0.30159 z m -10.729566,-5.75758 c 2.886524,-1.34261 6.777263,-3.32054 9.114164,-4.63336 0.989438,-0.55585 2.123394,-1.19264 2.51989,-1.41514 l 0.720899,-0.40449 0.101023,-1.55561 c 0.130691,-2.01058 0.130691,-10.13204 1.54e-4,-12.14173 l -0.100831,-1.55295 -2.475931,-1.39359 c -3.953427,-2.22521 -11.824004,-6.13196 -12.353537,-6.13196 -0.50012,0 -8.139872,3.7512 -11.609954,5.7006 -0.989438,0.55586 -2.123451,1.1927 -2.520042,1.41523 l -0.721075,0.4046 -0.101608,1.47288 c -0.131467,1.90656 -0.131467,10.40289 0,12.30944 l 0.101608,1.4729 0.721075,0.40459 c 0.396591,0.22252 1.49675,0.84007 2.444809,1.37232 3.540643,1.98775 11.15315,5.73925 11.652106,5.74225 0.116919,6.7e-4 1.245295,-0.47899 2.507266,-1.06598 z m -3.660243,-4.84731 c -0.172381,-0.0353 -0.701258,-0.13276 -1.175278,-0.21662 -1.95708,-0.34655 -4.424091,-1.69893 -5.729789,-3.14105 -0.833538,-0.92061 -1.814794,-2.67385 -2.121861,-3.79121 -0.270438,-0.98405 -0.269838,-3.1886 8.74e-4,-4.16919 1.727207,-6.25029 9.812901,-9.14307 15.862865,-5.67523 2.011782,1.15316 3.537366,2.93884 4.314227,5.04984 0.344667,0.93658 0.409138,1.36366 0.409138,2.70998 0,1.3463 -0.06457,1.77339 -0.409138,2.70997 -1.392391,3.78359 -5.096477,6.33292 -9.484194,6.52749 -0.744555,0.033 -1.494773,0.0313 -1.667134,-0.003 z m 3.768675,-3.86831 c 5.292262,-2.14875 5.280414,-8.5754 -0.01978,-10.74152 -0.819579,-0.33494 -1.120848,-0.38004 -2.573622,-0.38518 -1.533903,-0.007 -1.717298,0.0244 -2.706852,0.44007 -4.186171,1.75851 -5.177568,6.54665 -1.948452,9.4104 0.867297,0.76915 2.017114,1.37485 3.048454,1.60583 0.32355,0.0725 1.196121,0.11108 1.93901,0.0859 1.054453,-0.0357 1.550461,-0.1269 2.261239,-0.4155 z m -39.088005,4.84392 c 2.268937,-0.70993 2.881851,-3.22785 1.138608,-4.67755 -1.364391,-1.13464 -3.387051,-1.02884 -4.565274,0.23882 -1.074234,1.1558 -0.993025,2.70122 0.197454,3.757 0.938285,0.8321 2.019284,1.06033 3.229212,0.68173 z m 17.611867,-10.19583 c 0,-3.38004 -0.05333,-5.10132 -0.156675,-5.04839 -0.947419,0.48561 -7.130015,4.85166 -7.130015,5.03513 0,0.15512 1.964101,1.5844 4.848609,3.52853 1.316613,0.88739 2.403818,1.61345 2.415976,1.61345 0.0116,0 0.02212,-2.30793 0.02212,-5.12872 z m 40.351062,3.41202 c 2.615291,-1.76046 4.701098,-3.28411 4.701098,-3.43408 0,-0.16698 -6.211482,-4.5444 -7.129989,-5.02472 -0.103352,-0.054 -0.156674,1.66123 -0.156674,5.03352 0,3.37122 0.05353,5.08807 0.156674,5.03514 0.08629,-0.0442 1.179193,-0.76861 2.428891,-1.60986 z m -48.84859,-7.07918 c 2.254686,-1.64443 3.86111,-2.73477 6.611824,-4.48766 l 2.199112,-1.40134 0.11324,-1.23913 c 0.178199,-1.94843 0.738138,-5.90903 1.153036,-8.15557 0.208449,-1.12882 0.379026,-2.13524 0.379026,-2.23653 0,-0.31083 -5.597237,-1.59391 -9.558906,-2.19118 -2.830136,-0.42671 -8.718017,-0.47505 -10.342396,-0.085 -1.560409,0.37475 -3.194678,1.14034 -3.82227,1.7906 -2.534742,2.6262 -0.321998,8.05827 5.813265,14.27107 1.399528,1.41724 5.395906,5.02608 5.565806,5.02608 0.06477,0 0.914357,-0.58116 1.888186,-1.29138 z m 59.290619,-0.97112 c 8.432021,-7.66241 11.676881,-13.98884 8.737141,-17.03465 -0.62758,-0.65023 -2.26185,-1.41585 -3.82227,-1.79058 -1.62437,-0.39011 -7.512248,-0.34177 -10.342388,0.085 -2.472616,0.37279 -4.593065,0.79859 -7.499868,1.50602 l -2.093589,0.50953 0.09056,0.56462 c 0.04984,0.31053 0.268868,1.56521 0.486719,2.78817 0.347576,1.95144 0.936754,6.34796 1.059806,7.90837 0.04189,0.53089 0.09793,0.57782 2.550043,2.13543 2.394217,1.52079 7.640989,5.17302 7.838291,5.45614 0.05165,0.0739 0.18634,0.13449 0.299728,0.13449 0.113227,0 1.326392,-1.01813 2.695742,-2.26249 z m -43.323297,-8.93894 c 1.194066,-0.63822 3.226886,-1.66977 4.517342,-2.29232 1.290475,-0.62258 2.3121,-1.18105 2.270275,-1.24105 -0.176454,-0.25339 -8.319523,-3.15461 -8.472746,-3.01874 -0.171413,0.15203 -1.31863,6.96868 -1.31863,7.83555 0,0.35863 0.002,0.35935 0.416351,0.11883 0.229003,-0.1331 1.393342,-0.76411 2.587408,-1.40232 z m 25.59388,-0.57425 c -0.303403,-2.23114 -0.959577,-5.86849 -1.077548,-5.97311 -0.158809,-0.14085 -8.554323,2.83613 -8.557581,3.03446 -8.74e-4,0.0474 1.073962,0.60499 2.388306,1.23893 1.314345,0.63398 3.517977,1.76043 4.896968,2.50322 1.378994,0.74279 2.530379,1.29631 2.558632,1.23009 0.02831,-0.0663 -0.06573,-0.98134 -0.208777,-2.03359 z m -12.112359,-5.74871 c 2.481476,-1.00927 5.789298,-2.22941 8.27382,-3.0519 0.991144,-0.3281 1.850375,-0.63245 1.909399,-0.67631 0.104894,-0.0779 -0.219035,-1.52751 -0.399036,-1.78579 -0.05003,-0.0716 -0.495136,-0.16733 -0.989284,-0.21259 -1.960279,-0.17943 -4.273544,-1.65358 -5.214253,-3.32281 -1.255205,-2.22732 -0.876025,-4.99427 0.934349,-6.81825 0.343619,-0.34621 0.624761,-0.68706 0.624761,-0.75746 0,-0.33049 -2.063767,-2.85312 -3.050606,-3.72889 -1.502763,-1.33361 -2.577266,-1.79836 -4.157726,-1.79836 -0.98333,0 -1.328559,0.0667 -2.113737,0.40862 -3.000134,1.30635 -6.236017,5.99865 -8.53501,12.37649 -0.759195,2.1062 -1.739752,5.53927 -1.610379,5.63827 0.06303,0.0484 1.278143,0.48135 2.700221,0.96248 2.817475,0.95323 6.056752,2.16146 8.148577,3.0394 0.732573,0.30743 1.346106,0.56254 1.363421,0.56688 0.01745,0.003 0.969253,-0.37358 2.115483,-0.83978 z M 80.8085,200.08922 c 2.219144,-0.91402 2.621108,-3.28922 0.797026,-4.70955 -0.509155,-0.39646 -1.399158,-0.72248 -1.972301,-0.72248 -1.112141,0 -2.617619,0.97734 -2.971882,1.92931 -0.497056,1.33573 0.186536,2.78586 1.609545,3.41478 0.941815,0.41623 1.678634,0.44177 2.537612,0.0879 z"
       id="path3737-7"
       inkscape:connector-curvature="0"
       sodipodi:nodetypes="sscccscccsccccccsssssccsssccsscccsscccsscsscsscccccccsscccccsccscscssccccsssccscscsccsscsscccsscsccscsccssccccscsscssscccscccsccccccsscccssccccsccsscscscccccccccccccsssssccsssccsscscssscssssssssscssssccccscscccccscccccscccscccsccssscscsccsscsccs" />
    <ellipse
       id="path3739-3"
       cx="30.275513"
       cy="236.8997"
       style="fill:#37abc8;fill-opacity:1;stroke-width:0.12015329"
       rx="3.2898479"
       ry="3.0270247" />
    <ellipse
       ry="3.3200805"
       rx="3.8225174"
       style="fill:#37abc8;fill-opacity:1;stroke-width:0.13564032"
       cy="197.46257"
       cx="79.61097"
       id="ellipse3741-6" />
    <ellipse
       id="ellipse3743-5"
       cx="95.057426"
       cy="254.93779"
       style="fill:#37abc8;fill-opacity:1;stroke-width:0.13564032"
       rx="3.8225174"
       ry="3.3200805" />
    <ellipse
       ry="6.3028131"
       rx="6.8500581"
       style="fill:#37abc8;fill-opacity:1;stroke-width:0.25018084"
       cy="229.38026"
       cx="67.713379"
       id="ellipse3745-6" />
  </g>
</svg>
